# xmcd CD database file
#
# Track frame offsets:
#	150
#	10822
#	23710
#	40173
#	63186
#	82293
#	98034
#	117637
#	130674
#	144970
#	162785
#	177669
#	192398
#	207054
#	222504
#
# Disc length: 3120 seconds
#
# Revision: 0
# Processed by: cddbd v1.5.2PL0 Copyright (c) Steve Scherf et al.
# Submitted via: CD2WAV32(JP) R3.22
#
DISCID=d20c2e0f
DTITLE=Jan Van Brusselband - los!
DYEAR=2010
DGENRE=Pop
TTITLE0=Waar De Hemel Anders Is
TTITLE1=Mannen Van Stavast
TTITLE2=Dansen Op Het Strand
TTITLE3=Geef Me De Ruimte
TTITLE4=Groen
TTITLE5=Mooier Dan Vandaag
TTITLE6=Beleg Van Heeze
TTITLE7=Beleg Van Heeze
TTITLE8=Spijt
TTITLE9=Ik Hou Van U
TTITLE10=Daar Sta Jij
TTITLE11=Vrienden
TTITLE12=Thuis
TTITLE13=Twee Emmertjes
TTITLE14=De Dronken Zeeman
EXTD=
EXTT0=
EXTT1=
EXTT2=
EXTT3=
EXTT4=
EXTT5=
EXTT6=
EXTT7=
EXTT8=
EXTT9=
EXTT10=
EXTT11=
EXTT12=
EXTT13=
EXTT14=
PLAYORDER=
